<?xml version="1.0" encoding="UTF-8" standalone="no"?>
<!DOCTYPE svg PUBLIC "-//W3C//DTD SVG 1.1//EN" "http://www.w3.org/Graphics/SVG/1.1/DTD/svg11.dtd">
<svg width="100%" height="100%" viewBox="0 0 393 378" version="1.1" xmlns="http://www.w3.org/2000/svg" xmlns:xlink="http://www.w3.org/1999/xlink" xml:space="preserve" xmlns:serif="http://www.serif.com/" style="fill-rule:evenodd;clip-rule:evenodd;stroke-linejoin:round;stroke-miterlimit:2;">
    <g transform="matrix(1,0,0,1,-113.68172,-121.232423)">
        <g transform="matrix(12.987209,0,0,12.987209,-516.46699,-675.061366)">
            <path d="M50.846,65.965L52.009,65.965L52.009,67.128L50.846,67.128L50.846,65.965ZM49.684,67.128L50.846,67.128L50.846,68.29L49.684,68.29L49.684,67.128ZM52.009,64.802L53.172,64.802L53.172,65.965L52.009,65.965L52.009,64.802ZM53.172,63.639L54.335,63.639L54.335,64.802L53.172,64.802L53.172,63.639ZM55.497,61.314L56.66,61.314L56.66,62.476L55.497,62.476L55.497,61.314ZM55.497,62.476L56.66,62.476L56.66,63.639L55.497,63.639L55.497,62.476ZM57.823,61.314L58.986,61.314L58.986,62.476L57.823,62.476L57.823,61.314ZM57.823,62.476L58.986,62.476L58.986,63.639L57.823,63.639L57.823,62.476ZM56.66,62.476L57.823,62.476L57.823,63.639L56.66,63.639L56.66,62.476ZM56.66,61.314L57.823,61.314L57.823,62.476L56.66,62.476L56.66,61.314ZM58.986,61.314L60.149,61.314L60.149,62.476L58.986,62.476L58.986,61.314ZM60.149,62.476L61.311,62.476L61.311,63.639L60.149,63.639L60.149,62.476ZM58.986,62.476L60.149,62.476L60.149,63.639L58.986,63.639L58.986,62.476ZM62.474,62.476L63.637,62.476L63.637,63.639L62.474,63.639L62.474,62.476ZM61.311,62.476L62.474,62.476L62.474,63.639L61.311,63.639L61.311,62.476ZM64.8,63.639L65.963,63.639L65.963,64.802L64.8,64.802L64.8,63.639ZM64.8,64.802L65.963,64.802L65.963,65.965L64.8,65.965L64.8,64.802ZM64.8,65.965L65.963,65.965L65.963,67.128L64.8,67.128L64.8,65.965ZM63.637,64.802L64.8,64.802L64.8,65.965L63.637,65.965L63.637,64.802ZM63.637,63.639L64.8,63.639L64.8,64.802L63.637,64.802L63.637,63.639ZM63.637,62.476L64.8,62.476L64.8,63.639L63.637,63.639L63.637,62.476ZM71.777,62.476L72.939,62.476L72.939,63.639L71.777,63.639L71.777,62.476ZM72.939,61.314L74.102,61.314L74.102,62.476L72.939,62.476L72.939,61.314ZM74.102,61.314L75.265,61.314L75.265,62.476L74.102,62.476L74.102,61.314ZM74.102,62.476L75.265,62.476L75.265,63.639L74.102,63.639L74.102,62.476ZM72.939,62.476L74.102,62.476L74.102,63.639L72.939,63.639L72.939,62.476ZM76.428,63.639L77.59,63.639L77.59,64.802L76.428,64.802L76.428,63.639ZM65.963,64.802L67.125,64.802L67.125,65.965L65.963,65.965L65.963,64.802ZM65.963,65.965L67.125,65.965L67.125,67.128L65.963,67.128L65.963,65.965ZM67.125,65.965L68.288,65.965L68.288,67.128L67.125,67.128L67.125,65.965ZM68.288,65.965L69.451,65.965L69.451,67.128L68.288,67.128L68.288,65.965ZM69.451,65.965L70.614,65.965L70.614,67.128L69.451,67.128L69.451,65.965ZM69.451,67.128L70.614,67.128L70.614,68.29L69.451,68.29L69.451,67.128ZM68.288,67.128L69.451,67.128L69.451,68.29L68.288,68.29L68.288,67.128ZM67.125,67.128L68.288,67.128L68.288,68.29L67.125,68.29L67.125,67.128ZM61.311,68.29L62.474,68.29L62.474,69.453L61.311,69.453L61.311,68.29ZM61.311,69.453L62.474,69.453L62.474,70.616L61.311,70.616L61.311,69.453ZM67.125,68.29L68.288,68.29L68.288,69.453L67.125,69.453L67.125,68.29ZM68.288,68.29L69.451,68.29L69.451,69.453L68.288,69.453L68.288,68.29ZM69.451,68.29L70.614,68.29L70.614,69.453L69.451,69.453L69.451,68.29ZM69.451,69.453L70.614,69.453L70.614,70.616L69.451,70.616L69.451,69.453ZM68.288,70.616L69.451,70.616L69.451,71.779L68.288,71.779L68.288,70.616ZM67.125,70.616L68.288,70.616L68.288,71.779L67.125,71.779L67.125,70.616ZM68.288,69.453L69.451,69.453L69.451,70.616L68.288,70.616L68.288,69.453ZM67.125,69.453L68.288,69.453L68.288,70.616L67.125,70.616L67.125,69.453ZM65.963,71.779L67.125,71.779L67.125,72.942L65.963,72.942L65.963,71.779ZM65.963,70.616L67.125,70.616L67.125,71.779L65.963,71.779L65.963,70.616ZM67.125,71.779L68.288,71.779L68.288,72.942L67.125,72.942L67.125,71.779ZM68.288,71.779L69.451,71.779L69.451,72.942L68.288,72.942L68.288,71.779ZM60.149,68.29L61.311,68.29L61.311,69.453L60.149,69.453L60.149,68.29ZM60.149,69.453L61.311,69.453L61.311,70.616L60.149,70.616L60.149,69.453ZM60.149,70.616L61.311,70.616L61.311,71.779L60.149,71.779L60.149,70.616ZM60.149,71.779L61.311,71.779L61.311,72.942L60.149,72.942L60.149,71.779ZM61.311,77.593L62.474,77.593L62.474,78.756L61.311,78.756L61.311,77.593ZM62.474,77.593L63.637,77.593L63.637,78.756L62.474,78.756L62.474,77.593ZM65.963,72.942L67.125,72.942L67.125,74.104L65.963,74.104L65.963,72.942ZM65.963,74.104L67.125,74.104L67.125,75.267L65.963,75.267L65.963,74.104ZM65.963,75.267L67.125,75.267L67.125,76.43L65.963,76.43L65.963,75.267ZM65.963,76.43L67.125,76.43L67.125,77.593L65.963,77.593L65.963,76.43ZM67.125,72.942L68.288,72.942L68.288,74.104L67.125,74.104L67.125,72.942ZM67.125,74.104L68.288,74.104L68.288,75.267L67.125,75.267L67.125,74.104ZM67.125,75.267L68.288,75.267L68.288,76.43L67.125,76.43L67.125,75.267ZM67.125,76.43L68.288,76.43L68.288,77.593L67.125,77.593L67.125,76.43ZM65.963,78.756L67.125,78.756L67.125,79.918L65.963,79.918L65.963,78.756ZM67.125,78.756L68.288,78.756L68.288,79.918L67.125,79.918L67.125,78.756ZM68.288,77.593L69.451,77.593L69.451,78.756L68.288,78.756L68.288,77.593ZM68.288,76.43L69.451,76.43L69.451,77.593L68.288,77.593L68.288,76.43ZM68.288,75.267L69.451,75.267L69.451,76.43L68.288,76.43L68.288,75.267ZM68.288,74.104L69.451,74.104L69.451,75.267L68.288,75.267L68.288,74.104ZM68.288,72.942L69.451,72.942L69.451,74.104L68.288,74.104L68.288,72.942ZM68.288,78.756L69.451,78.756L69.451,79.918L68.288,79.918L68.288,78.756ZM69.451,79.918L70.614,79.918L70.614,81.081L69.451,81.081L69.451,79.918ZM69.451,81.081L70.614,81.081L70.614,82.244L69.451,82.244L69.451,81.081ZM68.288,81.081L69.451,81.081L69.451,82.244L68.288,82.244L68.288,81.081ZM67.125,81.081L68.288,81.081L68.288,82.244L67.125,82.244L67.125,81.081ZM65.963,81.081L67.125,81.081L67.125,82.244L65.963,82.244L65.963,81.081ZM65.963,79.918L67.125,79.918L67.125,81.081L65.963,81.081L65.963,79.918ZM67.125,79.918L68.288,79.918L68.288,81.081L67.125,81.081L67.125,79.918ZM68.288,79.918L69.451,79.918L69.451,81.081L68.288,81.081L68.288,79.918ZM54.335,83.407L55.497,83.407L55.497,84.57L54.335,84.57L54.335,83.407ZM53.172,84.57L54.335,84.57L54.335,85.732L53.172,85.732L53.172,84.57ZM52.009,85.732L53.172,85.732L53.172,86.895L52.009,86.895L52.009,85.732ZM65.963,82.244L67.125,82.244L67.125,83.407L65.963,83.407L65.963,82.244ZM67.125,82.244L68.288,82.244L68.288,83.407L67.125,83.407L67.125,82.244ZM68.288,82.244L69.451,82.244L69.451,83.407L68.288,83.407L68.288,82.244ZM69.451,82.244L70.614,82.244L70.614,83.407L69.451,83.407L69.451,82.244ZM53.172,85.732L54.335,85.732L54.335,86.895L53.172,86.895L53.172,85.732ZM54.335,85.732L55.497,85.732L55.497,86.895L54.335,86.895L54.335,85.732ZM54.335,86.895L55.497,86.895L55.497,88.058L54.335,88.058L54.335,86.895ZM53.172,86.895L54.335,86.895L54.335,88.058L53.172,88.058L53.172,86.895ZM55.497,86.895L56.66,86.895L56.66,88.058L55.497,88.058L55.497,86.895ZM61.311,85.732L62.474,85.732L62.474,86.895L61.311,86.895L61.311,85.732ZM61.311,86.895L62.474,86.895L62.474,88.058L61.311,88.058L61.311,86.895ZM60.149,86.895L61.311,86.895L61.311,88.058L60.149,88.058L60.149,86.895ZM62.474,84.57L63.637,84.57L63.637,85.732L62.474,85.732L62.474,84.57ZM65.963,83.407L67.125,83.407L67.125,84.57L65.963,84.57L65.963,83.407ZM67.125,83.407L68.288,83.407L68.288,84.57L67.125,84.57L67.125,83.407ZM68.288,83.407L69.451,83.407L69.451,84.57L68.288,84.57L68.288,83.407ZM69.451,83.407L70.614,83.407L70.614,84.57L69.451,84.57L69.451,83.407ZM69.451,84.57L70.614,84.57L70.614,85.732L69.451,85.732L69.451,84.57ZM68.288,84.57L69.451,84.57L69.451,85.732L68.288,85.732L68.288,84.57ZM67.125,84.57L68.288,84.57L68.288,85.732L67.125,85.732L67.125,84.57ZM65.963,84.57L67.125,84.57L67.125,85.732L65.963,85.732L65.963,84.57ZM65.963,85.732L67.125,85.732L67.125,86.895L65.963,86.895L65.963,85.732ZM65.963,86.895L67.125,86.895L67.125,88.058L65.963,88.058L65.963,86.895ZM67.125,86.895L68.288,86.895L68.288,88.058L67.125,88.058L67.125,86.895ZM68.288,86.895L69.451,86.895L69.451,88.058L68.288,88.058L68.288,86.895ZM68.288,85.732L69.451,85.732L69.451,86.895L68.288,86.895L68.288,85.732ZM69.451,85.732L70.614,85.732L70.614,86.895L69.451,86.895L69.451,85.732ZM67.125,85.732L68.288,85.732L68.288,86.895L67.125,86.895L67.125,85.732ZM69.451,86.895L70.614,86.895L70.614,88.058L69.451,88.058L69.451,86.895ZM68.288,88.058L69.451,88.058L69.451,89.221L68.288,89.221L68.288,88.058ZM68.288,89.221L69.451,89.221L69.451,90.383L68.288,90.383L68.288,89.221ZM69.451,89.221L70.614,89.221L70.614,90.383L69.451,90.383L69.451,89.221ZM69.451,88.058L70.614,88.058L70.614,89.221L69.451,89.221L69.451,88.058ZM71.777,88.058L72.939,88.058L72.939,89.221L71.777,89.221L71.777,88.058ZM71.777,89.221L72.939,89.221L72.939,90.383L71.777,90.383L71.777,89.221ZM70.614,89.221L71.777,89.221L71.777,90.383L70.614,90.383L70.614,89.221ZM74.102,85.732L75.265,85.732L75.265,86.895L74.102,86.895L74.102,85.732ZM74.102,86.895L75.265,86.895L75.265,88.058L74.102,88.058L74.102,86.895ZM72.939,86.895L74.102,86.895L74.102,88.058L72.939,88.058L72.939,86.895ZM72.939,88.058L74.102,88.058L74.102,89.221L72.939,89.221L72.939,88.058ZM67.125,88.058L68.288,88.058L68.288,89.221L67.125,89.221L67.125,88.058ZM58.986,88.058L60.149,88.058L60.149,89.221L58.986,89.221L58.986,88.058ZM57.823,88.058L58.986,88.058L58.986,89.221L57.823,89.221L57.823,88.058ZM57.823,89.221L58.986,89.221L58.986,90.383L57.823,90.383L57.823,89.221ZM58.986,89.221L60.149,89.221L60.149,90.383L58.986,90.383L58.986,89.221ZM56.66,88.058L57.823,88.058L57.823,89.221L56.66,89.221L56.66,88.058ZM55.497,89.221L56.66,89.221L56.66,90.383L55.497,90.383L55.497,89.221ZM56.66,89.221L57.823,89.221L57.823,90.383L56.66,90.383L56.66,89.221ZM55.497,88.058L56.66,88.058L56.66,89.221L55.497,89.221L55.497,88.058ZM60.149,88.058L61.311,88.058L61.311,89.221L60.149,89.221L60.149,88.058ZM62.474,85.732L63.637,85.732L63.637,86.895L62.474,86.895L62.474,85.732ZM75.265,62.476L76.428,62.476L76.428,63.639L75.265,63.639L75.265,62.476ZM50.846,86.895L52.009,86.895L52.009,88.058L50.846,88.058L50.846,86.895ZM54.335,84.57L55.497,84.57L55.497,85.732L54.335,85.732L54.335,84.57ZM70.614,88.058L71.777,88.058L71.777,89.221L70.614,89.221L70.614,88.058ZM49.684,88.058L50.846,88.058L50.846,89.221L49.684,89.221L49.684,88.058ZM60.149,76.43L61.311,76.43L61.311,77.593L60.149,77.593L60.149,76.43ZM60.149,74.104L61.311,74.104L61.311,75.267L60.149,75.267L60.149,74.104ZM60.149,75.267L61.311,75.267L61.311,76.43L60.149,76.43L60.149,75.267ZM60.149,72.942L61.311,72.942L61.311,74.104L60.149,74.104L60.149,72.942ZM61.311,70.616L62.474,70.616L62.474,71.779L61.311,71.779L61.311,70.616ZM61.311,71.779L62.474,71.779L62.474,72.942L61.311,72.942L61.311,71.779ZM56.66,81.081L57.823,81.081L57.823,82.244L56.66,82.244L56.66,81.081ZM62.474,63.639L63.637,63.639L63.637,64.802L62.474,64.802L62.474,63.639ZM69.451,78.756L70.614,78.756L70.614,79.918L69.451,79.918L69.451,78.756ZM54.335,88.058L55.497,88.058L55.497,89.221L54.335,89.221L54.335,88.058ZM57.823,67.128L58.986,67.128L58.986,68.29L57.823,68.29L57.823,67.128ZM58.986,67.128L60.149,67.128L60.149,68.29L58.986,68.29L58.986,67.128ZM60.149,67.128L61.311,67.128L61.311,68.29L60.149,68.29L60.149,67.128ZM60.149,61.314L61.311,61.314L61.311,62.476L60.149,62.476L60.149,61.314ZM58.986,78.756L60.149,78.756L60.149,79.918L58.986,79.918L58.986,78.756ZM75.265,84.57L76.428,84.57L76.428,85.732L75.265,85.732L75.265,84.57ZM55.497,82.244L56.66,82.244L56.66,83.407L55.497,83.407L55.497,82.244ZM57.823,79.918L58.986,79.918L58.986,81.081L57.823,81.081L57.823,79.918ZM57.823,81.081L58.986,81.081L58.986,82.244L57.823,82.244L57.823,81.081ZM56.66,82.244L57.823,82.244L57.823,83.407L56.66,83.407L56.66,82.244ZM55.497,83.407L56.66,83.407L56.66,84.57L55.497,84.57L55.497,83.407ZM55.497,84.57L56.66,84.57L56.66,85.732L55.497,85.732L55.497,84.57ZM60.149,77.593L61.311,77.593L61.311,78.756L60.149,78.756L60.149,77.593ZM63.637,77.593L64.8,77.593L64.8,78.756L63.637,78.756L63.637,77.593ZM60.149,78.756L61.311,78.756L61.311,79.918L60.149,79.918L60.149,78.756ZM61.311,78.756L62.474,78.756L62.474,79.918L61.311,79.918L61.311,78.756ZM62.474,78.756L63.637,78.756L63.637,79.918L62.474,79.918L62.474,78.756ZM61.311,72.942L62.474,72.942L62.474,74.104L61.311,74.104L61.311,72.942ZM75.265,85.732L76.428,85.732L76.428,86.895L75.265,86.895L75.265,85.732ZM70.614,86.895L71.777,86.895L71.777,88.058L70.614,88.058L70.614,86.895ZM70.614,63.639L71.777,63.639L71.777,64.802L70.614,64.802L70.614,63.639ZM77.59,64.802L78.753,64.802L78.753,65.965L77.59,65.965L77.59,64.802ZM61.311,74.104L62.474,74.104L62.474,75.267L61.311,75.267L61.311,74.104ZM61.311,75.267L62.474,75.267L62.474,76.43L61.311,76.43L61.311,75.267ZM61.311,76.43L62.474,76.43L62.474,77.593L61.311,77.593L61.311,76.43ZM67.125,77.593L68.288,77.593L68.288,78.756L67.125,78.756L67.125,77.593ZM65.963,77.593L67.125,77.593L67.125,78.756L65.963,78.756L65.963,77.593ZM71.777,86.895L72.939,86.895L72.939,88.058L71.777,88.058L71.777,86.895ZM56.66,86.895L57.823,86.895L57.823,88.058L56.66,88.058L56.66,86.895ZM57.823,86.895L58.986,86.895L58.986,88.058L57.823,88.058L57.823,86.895ZM58.986,86.895L60.149,86.895L60.149,88.058L58.986,88.058L58.986,86.895ZM48.521,89.221L49.684,89.221L49.684,90.383L48.521,90.383L48.521,89.221ZM61.311,61.314L62.474,61.314L62.474,62.476L61.311,62.476L61.311,61.314ZM50.846,85.732L52.009,85.732L52.009,86.895L50.846,86.895L50.846,85.732ZM49.684,86.895L50.846,86.895L50.846,88.058L49.684,88.058L49.684,86.895ZM48.521,88.058L49.684,88.058L49.684,89.221L48.521,89.221L48.521,88.058ZM52.009,86.895L53.172,86.895L53.172,88.058L52.009,88.058L52.009,86.895ZM64.8,77.593L65.963,77.593L65.963,78.756L64.8,78.756L64.8,77.593ZM63.637,78.756L64.8,78.756L64.8,79.918L63.637,79.918L63.637,78.756ZM65.963,67.128L67.125,67.128L67.125,68.29L65.963,68.29L65.963,67.128ZM68.288,64.802L69.451,64.802L69.451,65.965L68.288,65.965L68.288,64.802ZM69.451,64.802L70.614,64.802L70.614,65.965L69.451,65.965L69.451,64.802ZM67.125,64.802L68.288,64.802L68.288,65.965L67.125,65.965L67.125,64.802ZM65.963,63.639L67.125,63.639L67.125,64.802L65.963,64.802L65.963,63.639ZM61.311,63.639L62.474,63.639L62.474,64.802L61.311,64.802L61.311,63.639ZM65.963,68.29L67.125,68.29L67.125,69.453L65.963,69.453L65.963,68.29ZM52.009,84.57L53.172,84.57L53.172,85.732L52.009,85.732L52.009,84.57ZM55.497,85.732L56.66,85.732L56.66,86.895L55.497,86.895L55.497,85.732ZM56.66,85.732L57.823,85.732L57.823,86.895L56.66,86.895L56.66,85.732ZM58.986,65.965L60.149,65.965L60.149,67.128L58.986,67.128L58.986,65.965ZM62.474,64.802L63.637,64.802L63.637,65.965L62.474,65.965L62.474,64.802ZM63.637,65.965L64.8,65.965L64.8,67.128L63.637,67.128L63.637,65.965ZM64.8,67.128L65.963,67.128L65.963,68.29L64.8,68.29L64.8,67.128ZM65.963,69.453L67.125,69.453L67.125,70.616L65.963,70.616L65.963,69.453ZM62.474,69.453L63.637,69.453L63.637,70.616L62.474,70.616L62.474,69.453ZM62.474,70.616L63.637,70.616L63.637,71.779L62.474,71.779L62.474,70.616ZM62.474,71.779L63.637,71.779L63.637,72.942L62.474,72.942L62.474,71.779ZM62.474,72.942L63.637,72.942L63.637,74.104L62.474,74.104L62.474,72.942ZM62.474,74.104L63.637,74.104L63.637,75.267L62.474,75.267L62.474,74.104ZM62.474,75.267L63.637,75.267L63.637,76.43L62.474,76.43L62.474,75.267ZM62.474,76.43L63.637,76.43L63.637,77.593L62.474,77.593L62.474,76.43ZM56.66,68.29L57.823,68.29L57.823,69.453L56.66,69.453L56.66,68.29ZM55.497,69.453L56.66,69.453L56.66,70.616L55.497,70.616L55.497,69.453ZM54.335,70.616L55.497,70.616L55.497,71.779L54.335,71.779L54.335,70.616ZM57.823,68.29L58.986,68.29L58.986,69.453L57.823,69.453L57.823,68.29ZM56.66,69.453L57.823,69.453L57.823,70.616L56.66,70.616L56.66,69.453ZM55.497,70.616L56.66,70.616L56.66,71.779L55.497,71.779L55.497,70.616ZM54.335,71.779L55.497,71.779L55.497,72.942L54.335,72.942L54.335,71.779ZM58.986,68.29L60.149,68.29L60.149,69.453L58.986,69.453L58.986,68.29ZM58.986,69.453L60.149,69.453L60.149,70.616L58.986,70.616L58.986,69.453ZM71.777,63.639L72.939,63.639L72.939,64.802L71.777,64.802L71.777,63.639ZM70.614,64.802L71.777,64.802L71.777,65.965L70.614,65.965L70.614,64.802ZM75.265,63.639L76.428,63.639L76.428,64.802L75.265,64.802L75.265,63.639ZM74.102,63.639L75.265,63.639L75.265,64.802L74.102,64.802L74.102,63.639ZM75.265,64.802L76.428,64.802L76.428,65.965L75.265,65.965L75.265,64.802ZM76.428,64.802L77.59,64.802L77.59,65.965L76.428,65.965L76.428,64.802ZM72.939,63.639L74.102,63.639L74.102,64.802L72.939,64.802L72.939,63.639ZM74.102,64.802L75.265,64.802L75.265,65.965L74.102,65.965L74.102,64.802ZM75.265,65.965L76.428,65.965L76.428,67.128L75.265,67.128L75.265,65.965ZM76.428,65.965L77.59,65.965L77.59,67.128L76.428,67.128L76.428,65.965ZM72.939,64.802L74.102,64.802L74.102,65.965L72.939,65.965L72.939,64.802ZM74.102,65.965L75.265,65.965L75.265,67.128L74.102,67.128L74.102,65.965ZM75.265,67.128L76.428,67.128L76.428,68.29L75.265,68.29L75.265,67.128ZM49.684,68.29L50.846,68.29L50.846,69.453L49.684,69.453L49.684,68.29ZM50.846,67.128L52.009,67.128L52.009,68.29L50.846,68.29L50.846,67.128ZM52.009,65.965L53.172,65.965L53.172,67.128L52.009,67.128L52.009,65.965ZM53.172,64.802L54.335,64.802L54.335,65.965L53.172,65.965L53.172,64.802ZM54.335,63.639L55.497,63.639L55.497,64.802L54.335,64.802L54.335,63.639ZM54.335,62.476L55.497,62.476L55.497,63.639L54.335,63.639L54.335,62.476ZM62.474,61.314L63.637,61.314L63.637,62.476L62.474,62.476L62.474,61.314ZM64.8,62.476L65.963,62.476L65.963,63.639L64.8,63.639L64.8,62.476ZM67.125,63.639L68.288,63.639L68.288,64.802L67.125,64.802L67.125,63.639ZM65.963,62.476L67.125,62.476L67.125,63.639L65.963,63.639L65.963,62.476ZM64.8,61.314L65.963,61.314L65.963,62.476L64.8,62.476L64.8,61.314ZM63.637,61.314L64.8,61.314L64.8,62.476L63.637,62.476L63.637,61.314ZM57.823,69.453L58.986,69.453L58.986,70.616L57.823,70.616L57.823,69.453ZM58.986,70.616L60.149,70.616L60.149,71.779L58.986,71.779L58.986,70.616ZM57.823,70.616L58.986,70.616L58.986,71.779L57.823,71.779L57.823,70.616ZM58.986,71.779L60.149,71.779L60.149,72.942L58.986,72.942L58.986,71.779ZM60.149,79.918L61.311,79.918L61.311,81.081L60.149,81.081L60.149,79.918ZM58.986,79.918L60.149,79.918L60.149,81.081L58.986,81.081L58.986,79.918ZM58.986,81.081L60.149,81.081L60.149,82.244L58.986,82.244L58.986,81.081ZM57.823,82.244L58.986,82.244L58.986,83.407L57.823,83.407L57.823,82.244ZM56.66,83.407L57.823,83.407L57.823,84.57L56.66,84.57L56.66,83.407ZM69.451,77.593L70.614,77.593L70.614,78.756L69.451,78.756L69.451,77.593ZM69.451,76.43L70.614,76.43L70.614,77.593L69.451,77.593L69.451,76.43ZM69.451,75.267L70.614,75.267L70.614,76.43L69.451,76.43L69.451,75.267ZM69.451,74.104L70.614,74.104L70.614,75.267L69.451,75.267L69.451,74.104ZM69.451,72.942L70.614,72.942L70.614,74.104L69.451,74.104L69.451,72.942ZM69.451,71.779L70.614,71.779L70.614,72.942L69.451,72.942L69.451,71.779ZM69.451,70.616L70.614,70.616L70.614,71.779L69.451,71.779L69.451,70.616Z" style="fill-rule:nonzero;"/>
        </g>
    </g>
</svg>
